<?xml version="1.0" standalone="no"?>
<!DOCTYPE svg PUBLIC "-//W3C//DTD SVG 20010904//EN"
 "http://www.w3.org/TR/2001/REC-SVG-20010904/DTD/svg10.dtd">
<svg version="1.0" xmlns="http://www.w3.org/2000/svg"
 width="260.000000pt" height="260.000000pt" viewBox="0 0 260.000000 260.000000"
 preserveAspectRatio="xMidYMid meet">
<metadata>
Created by potrace 1.11, written by Peter Selinger 2001-2013
</metadata>
<g transform="translate(0.000000,260.000000) scale(0.100000,-0.100000)"
fill="#000000" stroke="none">
<path d="M1474 1883 c-66 -58 -126 -112 -135 -120 -15 -12 -31 -1 -140 97 -67
61 -130 109 -138 108 -8 -2 -30 -23 -49 -48 l-34 -44 29 -26 c17 -14 92 -82
167 -152 75 -71 142 -128 149 -128 20 0 347 302 347 321 0 5 -4 8 -9 5 -5 -4
-24 12 -42 35 -26 33 -29 43 -18 50 8 5 9 9 3 9 -6 0 -65 -48 -130 -107z"/>
<path d="M786 1868 c-42 -72 -113 -228 -146 -323 -80 -226 -107 -448 -76 -624
9 -51 19 -97 21 -102 3 -4 26 4 51 19 l45 27 -8 70 c-26 231 19 490 127 729
l30 68 83 -78 c45 -42 153 -144 239 -226 86 -81 164 -148 172 -148 8 0 122
101 253 225 l238 225 28 -57 c44 -86 103 -275 122 -392 17 -104 18 -354 1
-392 -5 -13 5 -24 43 -47 l50 -31 10 37 c68 261 11 582 -164 933 -31 63 -60
118 -65 123 -5 5 -115 -92 -259 -229 -138 -130 -255 -235 -261 -233 -5 1 -119
108 -254 236 -135 127 -247 232 -250 232 -3 0 -16 -19 -30 -42z"/>
<path d="M872 1508 c-31 -82 -62 -186 -78 -263 -20 -92 -31 -300 -16 -309 6
-4 35 9 65 29 l54 36 6 97 c7 103 33 217 71 312 l24 58 -47 46 c-26 25 -50 46
-53 46 -4 0 -15 -24 -26 -52z"/>
<path d="M1696 1511 c-47 -47 -47 -49 -33 -77 41 -82 87 -284 87 -385 0 -48 1
-49 56 -84 44 -29 59 -34 65 -23 20 30 2 234 -32 368 -23 91 -79 250 -88 250
-4 0 -28 -22 -55 -49z"/>
</g>
</svg>
