<?xml version="1.0" standalone="no"?>
<!DOCTYPE svg PUBLIC "-//W3C//DTD SVG 20010904//EN"
 "http://www.w3.org/TR/2001/REC-SVG-20010904/DTD/svg10.dtd">
<svg version="1.0" xmlns="http://www.w3.org/2000/svg"
 width="260.000000pt" height="260.000000pt" viewBox="0 0 260.000000 260.000000"
 preserveAspectRatio="xMidYMid meet">
<metadata>
Created by potrace 1.11, written by Peter Selinger 2001-2013
</metadata>
<g transform="translate(0.000000,260.000000) scale(0.100000,-0.100000)"
fill="#000000" stroke="none">
<path d="M1600 2349 c-63 -22 -119 -41 -125 -43 -15 -4 -65 -24 -107 -42 -32
-14 -43 -15 -90 -3 -29 7 -56 14 -60 15 -5 1 -9 2 -10 4 -2 1 -10 3 -18 5 -8
1 -69 17 -134 35 -116 31 -135 36 -185 46 -14 3 -28 7 -33 10 -10 6 -103 -50
-131 -78 -10 -10 -13 -19 -7 -19 12 -2 13 -2 70 -18 25 -7 52 -14 60 -16 8 -2
26 -8 40 -13 14 -5 28 -10 33 -11 22 -3 65 -14 82 -21 18 -8 57 -18 95 -26 8
-2 38 -10 65 -18 151 -45 168 -48 215 -35 25 7 50 15 55 19 6 4 39 17 75 29
36 12 74 26 85 31 11 5 47 19 80 30 33 12 69 26 80 31 12 6 27 11 35 13 8 2
28 8 43 14 16 7 32 12 36 12 5 0 14 7 21 15 10 12 10 15 -4 15 -9 0 -16 3 -16
8 0 12 -61 41 -100 47 -26 4 -66 -6 -150 -36z"/>
<path d="M1960 2233 c-8 -2 -22 -7 -30 -10 -8 -4 -18 -5 -22 -5 -5 1 -8 -3 -8
-9 0 -5 -4 -8 -9 -4 -5 3 -13 0 -16 -6 -4 -5 -13 -8 -21 -5 -8 3 -14 2 -14 -2
0 -7 -64 -32 -87 -34 -7 -1 -13 -5 -13 -10 0 -5 -4 -7 -8 -4 -5 3 -20 -1 -35
-9 -15 -8 -27 -11 -27 -8 0 3 -6 0 -13 -6 -8 -6 -17 -8 -20 -4 -4 3 -7 1 -7
-6 0 -6 -6 -11 -12 -10 -7 1 -26 -4 -43 -11 -16 -7 -34 -14 -40 -16 -5 -2 -53
-18 -105 -37 -112 -39 -105 -39 -257 4 -43 12 -82 22 -88 23 -5 1 -16 5 -22 9
-7 5 -13 6 -13 2 0 -3 -13 1 -29 9 -16 9 -31 13 -33 10 -3 -2 -24 3 -48 11
-24 8 -45 13 -48 10 -2 -2 -14 2 -24 10 -11 7 -26 11 -33 9 -7 -3 -16 0 -20 5
-3 6 -11 9 -16 6 -5 -4 -9 -2 -9 4 0 6 -7 8 -15 5 -8 -3 -20 -2 -27 2 -7 5
-22 10 -32 11 -11 2 -25 8 -31 13 -7 5 -15 7 -18 4 -3 -3 -12 -2 -19 2 -7 4
-19 9 -28 10 -8 1 -22 4 -31 8 -20 9 -144 -85 -126 -96 6 -4 20 -8 29 -8 9 0
29 -5 45 -11 15 -7 37 -13 48 -15 11 -1 65 -15 120 -29 55 -15 109 -30 120
-32 11 -3 27 -7 35 -10 8 -3 22 -7 31 -9 8 -2 42 -11 75 -20 51 -14 115 -30
149 -38 6 -2 30 -9 55 -16 25 -7 50 -14 55 -16 85 -20 124 -22 165 -6 14 5 27
10 30 10 3 0 28 9 56 21 29 11 55 17 58 14 3 -4 6 -1 6 5 0 7 3 11 8 10 4 0
14 1 22 5 8 3 85 28 170 57 85 28 162 53 170 56 8 3 16 5 18 5 1 -1 17 5 36
13 19 8 37 12 40 8 3 -3 6 0 6 7 0 7 6 11 13 8 6 -2 27 5 45 15 19 10 31 14
27 8 -3 -6 0 -7 9 -4 24 9 19 28 -12 42 -16 6 -38 21 -49 31 -12 11 -24 17
-27 14 -3 -4 -6 -1 -6 5 0 12 -23 14 -50 5z"/>
<path d="M2186 2059 c-28 -10 -52 -16 -55 -14 -2 3 -15 -2 -28 -10 -13 -9 -28
-13 -33 -10 -6 3 -10 2 -10 -3 0 -5 -15 -13 -32 -17 -33 -8 -46 -11 -50 -14
-4 -2 -381 -132 -393 -135 -14 -4 -34 -11 -75 -25 -19 -7 -41 -13 -47 -14 -7
0 -13 -5 -13 -10 0 -6 -2 -8 -5 -5 -3 3 -31 -2 -62 -12 -49 -15 -63 -16 -104
-5 -26 7 -50 10 -53 7 -3 -3 -6 -1 -6 4 0 5 -14 11 -32 12 -18 2 -35 6 -38 10
-6 9 -27 14 -62 15 -16 1 -28 5 -28 8 0 4 -12 9 -27 12 -61 11 -89 18 -113 26
-14 5 -72 21 -130 36 -58 15 -112 29 -120 32 -8 3 -23 7 -32 9 -10 2 -26 6
-35 8 -10 2 -25 6 -33 9 -8 3 -44 12 -80 22 -36 9 -72 19 -80 22 -46 18 -73
12 -124 -24 -28 -21 -53 -40 -56 -44 -3 -3 -20 -14 -38 -23 -18 -9 -36 -24
-39 -31 -3 -8 -9 -13 -13 -10 -5 3 -17 -6 -28 -20 -19 -24 -20 -41 -16 -662 2
-351 4 -740 5 -865 l2 -227 41 28 c23 15 68 45 101 66 33 21 67 46 75 54 13
14 15 111 13 771 -1 514 2 759 9 768 12 14 66 13 85 -1 7 -5 20 -7 28 -3 8 3
15 1 15 -4 0 -6 3 -9 8 -8 4 1 27 -4 52 -11 25 -7 52 -15 60 -16 8 -2 16 -4
18 -5 1 -2 7 -4 12 -5 6 -1 11 -3 13 -5 1 -1 11 -3 22 -5 44 -8 111 -28 120
-36 5 -5 18 -9 30 -9 11 0 47 -9 79 -20 33 -11 61 -18 64 -15 3 2 13 0 24 -6
11 -6 32 -13 46 -15 15 -3 31 -9 38 -15 6 -5 14 -6 17 -3 3 3 12 2 19 -2 7 -5
18 -9 23 -9 6 -1 17 -4 25 -7 8 -3 35 -11 59 -18 42 -11 53 -14 102 -25 12 -2
27 -1 33 3 6 3 22 8 36 10 13 2 30 8 37 14 7 6 13 8 13 5 0 -3 16 1 35 9 19 8
36 14 37 13 3 -1 81 20 98 26 3 1 20 6 38 10 18 4 35 12 38 16 3 5 13 9 23 9
9 0 67 16 127 36 60 19 117 36 127 37 9 1 17 5 17 9 0 4 3 7 8 6 13 -4 112 26
112 34 0 4 6 5 14 2 8 -3 17 -1 20 5 4 6 13 8 21 4 8 -3 15 -1 15 4 0 5 6 10
13 10 6 0 29 3 50 7 35 7 37 6 38 -21 0 -15 1 -249 2 -520 1 -270 6 -495 10
-499 4 -4 2 -13 -4 -21 -9 -10 -8 -13 2 -13 9 0 10 -3 4 -8 -12 -9 -18 -32 -7
-32 4 0 7 -11 7 -25 0 -14 -4 -25 -9 -25 -5 0 -4 -6 2 -13 6 -7 7 -18 2 -27
-5 -7 -4 -24 2 -39 6 -17 6 -27 -1 -29 -6 -2 -8 -8 -5 -13 9 -16 11 -182 2
-201 -4 -9 -4 -19 1 -22 5 -3 8 -22 6 -41 -3 -33 0 -37 86 -97 50 -35 99 -71
111 -80 11 -10 24 -16 27 -13 4 2 6 158 5 347 -1 189 -4 599 -5 911 l-4 569
-43 29 c-24 16 -47 29 -53 29 -5 0 -9 5 -9 10 0 6 -12 16 -27 23 -16 6 -36 19
-45 27 -9 8 -29 22 -45 32 -26 15 -31 15 -77 -3z"/>
<path d="M2063 1686 c-40 -13 -75 -21 -78 -18 -3 3 -2 -188 1 -424 3 -236 6
-514 6 -619 1 -176 3 -192 21 -213 11 -12 26 -22 33 -22 7 0 14 -4 16 -8 3 -9
97 -75 99 -70 6 25 5 38 -2 38 -6 0 -6 8 1 19 5 11 7 22 2 25 -9 5 -8 53 1 63
4 3 2 12 -4 19 -6 8 -6 14 0 18 6 4 6 18 1 36 -6 20 -5 30 2 30 7 0 7 4 0 13
-7 8 -7 18 -2 27 5 8 6 18 3 24 -3 5 -7 153 -8 330 -2 177 -4 360 -5 407 -2
48 0 91 4 98 4 6 4 11 -1 11 -4 0 -8 54 -7 120 0 66 -2 120 -5 120 -3 -1 -38
-11 -78 -24z"/>
<path d="M435 1198 c0 -277 -3 -511 -8 -522 -5 -10 -5 -16 0 -13 11 7 10 -254
-2 -272 -6 -10 -4 -12 5 -6 10 6 11 2 6 -19 -4 -16 -2 -26 4 -26 12 0 52 19
60 29 11 13 70 51 79 51 6 0 13 12 17 28 3 15 7 32 9 39 2 7 0 15 -6 18 -5 4
-7 11 -3 16 3 6 7 262 8 569 l2 559 -25 10 c-27 10 -69 23 -86 27 -5 1 -22 5
-36 9 l-26 6 2 -503z"/>
<path d="M709 1602 c0 -15 -2 -37 -3 -49 -2 -13 2 -23 8 -23 7 0 8 -3 1 -8 -6
-4 -10 -97 -10 -245 0 -132 -3 -241 -8 -244 -4 -2 -4 -9 0 -16 11 -17 10 -57
-2 -57 -6 0 -7 -3 0 -8 11 -8 14 -92 3 -92 -4 0 -3 -13 2 -30 5 -16 6 -30 2
-30 -4 0 -7 -62 -6 -138 0 -129 8 -177 23 -155 9 14 128 93 140 93 6 0 12 6
13 13 6 46 3 965 -3 961 -4 -2 -10 0 -13 5 -5 7 -50 20 -71 21 -3 0 -21 6 -40
14 -35 15 -35 15 -36 -12z"/>
<path d="M1856 1623 c-3 -4 -13 -8 -21 -10 -27 -5 -50 -11 -52 -13 -2 -2 -7
-4 -13 -5 -5 -1 -12 -4 -15 -5 -8 -4 -24 -7 -40 -9 -13 -1 -14 -58 -11 -463 2
-255 5 -468 5 -474 2 -19 33 -47 111 -101 l75 -51 0 139 c0 76 -4 139 -9 139
-5 0 -3 6 3 13 6 8 8 16 5 19 -3 3 -7 187 -9 409 -2 222 -4 407 -4 412 -1 9
-15 9 -25 0z"/>
</g>
</svg>
