<?xml version="1.0" standalone="no"?>
<!DOCTYPE svg PUBLIC "-//W3C//DTD SVG 20010904//EN"
 "http://www.w3.org/TR/2001/REC-SVG-20010904/DTD/svg10.dtd">
<svg version="1.0" xmlns="http://www.w3.org/2000/svg"
 width="260.000000pt" height="260.000000pt" viewBox="0 0 260.000000 260.000000"
 preserveAspectRatio="xMidYMid meet">
<metadata>
Created by potrace 1.11, written by Peter Selinger 2001-2013
</metadata>
<g transform="translate(0.000000,260.000000) scale(0.100000,-0.100000)"
fill="#000000" stroke="none">
<path d="M1670 2190 c0 -5 -5 -10 -11 -10 -12 0 -34 -18 -236 -194 l-121 -106
-119 102 c-65 56 -140 121 -167 145 -64 57 -85 56 -136 -8 -23 -29 -40 -59
-38 -67 2 -9 44 -52 93 -96 267 -239 357 -316 365 -316 9 0 301 253 423 367
52 48 68 80 34 67 -18 -6 -89 90 -81 110 3 9 3 16 0 16 -3 0 -6 -4 -6 -10z"/>
<path d="M592 2088 c-6 -7 -44 -78 -85 -158 -118 -226 -184 -407 -234 -634
-23 -103 -27 -146 -27 -286 -1 -154 8 -228 40 -342 7 -25 22 -22 84 21 38 26
54 43 53 57 -2 10 -8 51 -14 89 -17 101 -5 355 21 480 32 149 117 392 183 517
l14 28 154 -142 c499 -457 500 -458 525 -458 7 0 141 118 299 263 158 144 307
279 330 299 l42 37 38 -82 c57 -124 124 -319 151 -442 39 -172 44 -442 11
-597 -2 -12 100 -87 120 -87 26 -2 63 206 63 351 0 278 -99 621 -275 948 -37
69 -73 131 -79 138 -10 11 -31 -4 -107 -75 -84 -79 -321 -296 -484 -442 -33
-30 -72 -66 -87 -79 l-27 -25 -98 88 c-54 49 -143 130 -198 180 -55 51 -147
135 -205 187 -58 52 -124 113 -148 136 -50 48 -46 46 -60 30z"/>
<path d="M693 1593 c-59 -141 -112 -324 -134 -463 -14 -83 -18 -314 -7 -325 4
-4 42 15 85 42 l78 49 7 105 c10 157 53 338 108 452 11 22 20 46 20 53 0 11
-122 124 -135 124 -3 0 -13 -17 -22 -37z"/>
<path d="M1811 1570 l-64 -59 23 -53 c64 -149 98 -292 108 -456 l7 -106 78
-49 c64 -41 81 -48 89 -36 13 19 3 254 -16 359 -29 160 -127 461 -151 460 -5
-1 -39 -27 -74 -60z"/>
</g>
</svg>
